<svg width="120" height="16" viewBox="0 0 120 16" fill="none" xmlns="http://www.w3.org/2000/svg">
<path d="M47.9296 15.0451V0H53.8047C54.9294 0 55.8892 0.203246 56.6841 0.609739C57.484 1.01133 58.0923 1.58189 58.5092 2.32142C58.9309 3.05604 59.1418 3.92045 59.1418 4.91464C59.1418 5.91373 58.9285 6.77324 58.5019 7.49317C58.0754 8.20821 57.4573 8.75673 56.6478 9.13873C55.8431 9.52074 54.8688 9.71174 53.7248 9.71174H49.791V7.15525H53.2158C53.8169 7.15525 54.3162 7.07199 54.7136 6.90547C55.1111 6.73896 55.4068 6.48919 55.6007 6.15616C55.7995 5.82313 55.8988 5.40929 55.8988 4.91464C55.8988 4.4151 55.7995 3.99391 55.6007 3.65109C55.4068 3.30826 55.1087 3.04869 54.7064 2.87238C54.3089 2.69118 53.8072 2.60057 53.2012 2.60057H51.078V15.0451H47.9296ZM55.9716 8.19841L59.6726 15.0451H56.197L52.5759 8.19841H55.9716Z" fill="white"/>
<path d="M70.5649 0H73.7133V9.77051C73.7133 10.8676 73.454 11.8275 72.9353 12.6502C72.4215 13.473 71.7016 14.1146 70.7757 14.575C69.8499 15.0304 68.7713 15.2582 67.5401 15.2582C66.3039 15.2582 65.223 15.0304 64.2971 14.575C63.3712 14.1146 62.6514 13.473 62.1376 12.6502C61.6237 11.8275 61.3668 10.8676 61.3668 9.77051V0H64.5152V9.4987C64.5152 10.0717 64.6388 10.581 64.8861 11.0267C65.1381 11.4724 65.492 11.8226 65.9477 12.0772C66.4033 12.3319 66.9341 12.4592 67.5401 12.4592C68.1508 12.4592 68.6816 12.3319 69.1324 12.0772C69.5881 11.8226 69.9396 11.4724 70.1868 11.0267C70.4388 10.581 70.5649 10.0717 70.5649 9.4987V0Z" fill="white"/>
<path d="M79.4521 0V15.0451H76.3037V0H79.4521Z" fill="white"/>
<path d="M81.4753 2.62261V0H93.7055V2.62261H89.1464V15.0451H86.0344V2.62261H81.4753Z" fill="white"/>
<path d="M95.7196 15.0451V0H105.754V2.62261H98.8681V6.20758H105.238V8.83019H98.8681V12.4225H105.783V15.0451H95.7196Z" fill="white"/>
<path d="M108.257 15.0451V0H114.132C115.257 0 116.217 0.203246 117.012 0.609739C117.811 1.01133 118.42 1.58189 118.837 2.32142C119.258 3.05604 119.469 3.92045 119.469 4.91464C119.469 5.91373 119.256 6.77324 118.829 7.49317C118.403 8.20821 117.785 8.75673 116.975 9.13873C116.171 9.52074 115.196 9.71174 114.052 9.71174H110.118V7.15525H113.543C114.144 7.15525 114.644 7.07199 115.041 6.90547C115.439 6.73896 115.734 6.48919 115.928 6.15616C116.127 5.82313 116.226 5.40929 116.226 4.91464C116.226 4.4151 116.127 3.99391 115.928 3.65109C115.734 3.30826 115.436 3.04869 115.034 2.87238C114.636 2.69118 114.135 2.60057 113.529 2.60057H111.405V15.0451H108.257ZM116.299 8.19841L120 15.0451H116.524L112.903 8.19841H116.299Z" fill="white"/>
<path d="M44.7424 15.5932H28.107V12.0398H35.4418V11.8182L28.107 5.76996V1.51075L35.5555 7.74774L44.7424 1.4369V5.6879L37.903 10.2918L40.0149 12.0398H44.7424V15.5932Z" fill="white"/>
<path d="M0 15.0451V0H5.87514C6.99975 0 7.95955 0.203246 8.75453 0.609739C9.55437 1.01133 10.1627 1.58189 10.5796 2.32142C11.0013 3.05604 11.2122 3.92045 11.2122 4.91464C11.2122 5.91373 10.9989 6.77324 10.5723 7.49317C10.1458 8.20821 9.52771 8.75673 8.71818 9.13873C7.9135 9.52074 6.93916 9.71174 5.79515 9.71174H1.86143V7.15525H5.28617C5.88725 7.15525 6.38654 7.07199 6.78404 6.90547C7.18153 6.73896 7.47722 6.48919 7.67112 6.15616C7.86987 5.82313 7.96924 5.40929 7.96924 4.91464C7.96924 4.4151 7.86987 3.99391 7.67112 3.65109C7.47722 3.30826 7.17911 3.04869 6.77677 2.87238C6.37927 2.69118 5.87756 2.60057 5.27163 2.60057H3.14843V15.0451H0ZM8.04195 8.19841L11.743 15.0451H8.26736L4.6463 8.19841H8.04195Z" fill="white"/>
<path d="M13.4372 15.0451V0H23.4715V2.62261H16.5856V6.20758H22.9552V8.83019H16.5856V12.4225H23.5005V15.0451H13.4372Z" fill="white"/>
</svg>
