<svg width="24" height="20" viewBox="0 0 24 20" fill="none" xmlns="http://www.w3.org/2000/svg">
<g clip-path="url(#clip0_422_2015)">
<path d="M12.4136 15.1672C14.1425 15.1672 15.5441 13.7861 15.5441 12.0824C15.5441 10.3787 14.1425 8.99756 12.4136 8.99756C10.6847 8.99756 9.2832 10.3787 9.2832 12.0824C9.2832 13.7861 10.6847 15.1672 12.4136 15.1672Z" fill="#9DA2AE"/>
<path d="M20.8696 3.89032H18.5913L18.2991 2.47129C18.0035 1.03513 16.72 0 15.2313 0H10.2365C8.78957 0 7.53044 0.983719 7.19652 2.37189L6.8313 3.89032H4.58435C4.71652 4.10968 4.80348 4.34961 4.84174 4.59983C5.98261 4.77121 6.76174 5.82348 6.58783 6.9443C6.4487 7.83205 5.74261 8.52785 4.84174 8.66495C4.66087 9.78578 3.58957 10.5501 2.45217 10.3719C1.56174 10.2314 0.862609 9.54242 0.72 8.66495C0.466087 8.62725 0.21913 8.54156 0 8.41131V16.9152C0 18.6187 1.40174 20 3.13043 20H20.8696C22.5983 20 24 18.6187 24 16.9152V6.97515C24 5.27164 22.5983 3.89032 20.8696 3.89032ZM12.4139 17.2236C9.53391 17.2236 7.19652 14.9203 7.19652 12.0823C7.19652 9.24422 9.53391 6.94087 12.4139 6.94087C15.2939 6.94087 17.6313 9.24422 17.6313 12.0823C17.6313 14.9203 15.2939 17.2236 12.4139 17.2236ZM20.4139 8.31191H19.3704C18.793 8.31191 18.327 7.85261 18.327 7.28363C18.327 6.71465 18.793 6.25536 19.3704 6.25536H20.4139C20.9913 6.25536 21.4574 6.71465 21.4574 7.28363C21.4574 7.85261 20.9913 8.31191 20.4139 8.31191Z" fill="#9DA2AE"/>
<path d="M4.52174 5.60418H3.82609V4.91866C3.82609 4.34968 3.36 3.89038 2.78261 3.89038C2.20522 3.89038 1.73913 4.34968 1.73913 4.91866V5.60418H1.04348C0.466087 5.60418 0 6.06347 0 6.63245C0 7.20143 0.466087 7.66073 1.04348 7.66073H1.73913V8.34625C1.73913 8.91523 2.20522 9.37453 2.78261 9.37453C3.36 9.37453 3.82609 8.91523 3.82609 8.34625V7.66073H4.52174C5.09913 7.66073 5.56522 7.20143 5.56522 6.63245C5.56522 6.06347 5.09913 5.60418 4.52174 5.60418Z" fill="#9DA2AE"/>
</g>
<defs>
<clipPath id="clip0_422_2015">
<rect width="24" height="20" fill="white"/>
</clipPath>
</defs>
</svg>
