<svg width="20" height="18" viewBox="0 0 20 18" fill="none" xmlns="http://www.w3.org/2000/svg">
<path d="M10.3496 7.36365V10.8491H15.4255C15.2026 11.97 14.5337 12.9191 13.5306 13.5573L16.5915 15.8237C18.3749 14.2528 19.4038 11.9455 19.4038 9.20465C19.4038 8.56648 19.3438 7.95278 19.2323 7.36375L10.3496 7.36365Z" fill="#4285F4"/>
<path d="M5.0637 10.713L4.37335 11.2173L1.92969 13.0336C3.4816 15.9709 6.66235 18 10.3492 18C12.8956 18 15.0305 17.1982 16.5911 15.8237L13.5301 13.5573C12.6899 14.0973 11.6181 14.4246 10.3492 14.4246C7.897 14.4246 5.81356 12.8455 5.06756 10.7182L5.0637 10.713Z" fill="#34A853"/>
<path d="M1.92964 4.96631C1.28662 6.17717 0.917969 7.54355 0.917969 8.99989C0.917969 10.4562 1.28662 11.8226 1.92964 13.0335C1.92964 13.0416 5.06781 10.7098 5.06781 10.7098C4.87918 10.1698 4.76769 9.59715 4.76769 8.9998C4.76769 8.40245 4.87918 7.82975 5.06781 7.28976L1.92964 4.96631Z" fill="#FBBC05"/>
<path d="M10.3494 3.58363C11.7384 3.58363 12.973 4.0418 13.9591 4.92545L16.6599 2.34821C15.0222 0.891874 12.8959 0 10.3494 0C6.66254 0 3.4816 2.02091 1.92969 4.96637L5.06776 7.29001C5.81367 5.16271 7.8972 3.58363 10.3494 3.58363Z" fill="#EA4335"/>
</svg>
