<svg width="18" height="18" viewBox="0 0 18 18" fill="none" xmlns="http://www.w3.org/2000/svg">
<path d="M3 17C2.45 17 1.97933 16.8211 1.588 16.4633C1.196 16.1049 1 15.6743 1 15.1714V6.94286C1 6.65333 1.071 6.37905 1.213 6.12C1.35433 5.86095 1.55 5.64762 1.8 5.48L7.8 1.36571C7.98333 1.24381 8.175 1.15238 8.375 1.09143C8.575 1.03048 8.78333 1 9 1C9.21667 1 9.425 1.03048 9.625 1.09143C9.825 1.15238 10.0167 1.24381 10.2 1.36571L16.2 5.48C16.45 5.64762 16.646 5.86095 16.788 6.12C16.9293 6.37905 17 6.65333 17 6.94286V15.1714C17 15.6743 16.8043 16.1049 16.413 16.4633C16.021 16.8211 15.55 17 15 17H11V10.6H7V17H3Z" fill="#9DA2AE"/>
</svg>
