<svg width="18" height="18" viewBox="0 0 18 18" fill="none" xmlns="http://www.w3.org/2000/svg">
<g clip-path="url(#clip0_247_223)">
<path d="M8.47044 10.2499C8.95044 10.6099 9.54044 10.4099 9.82044 9.9099C9.87044 9.8199 9.85044 9.6599 9.98044 9.6499L16.0704 9.6899C16.2704 9.7999 16.3204 9.9199 16.3404 10.1299C16.2804 11.5099 16.4204 12.9599 16.3404 14.3299C16.2904 15.0999 16.0004 15.5799 15.2604 15.8499C11.1004 15.9399 6.90044 15.9399 2.74044 15.8499C2.24044 15.7199 1.88044 15.3399 1.71044 14.8699C1.71044 13.3799 1.53044 11.6599 1.66044 10.1799C1.68044 9.8899 1.77044 9.7199 2.06044 9.6599H8.02044C8.16044 9.6899 8.19044 9.9599 8.27044 10.0799C8.33044 10.1599 8.40044 10.2099 8.48044 10.2699L8.47044 10.2499Z" fill="#9DA2AE"/>
<path d="M12.4305 4.91995C12.4705 4.97995 12.5105 4.97995 12.5705 4.98995C13.8305 5.13995 16.7205 4.35995 16.9505 6.22995C17.0105 6.68995 17.0105 7.90995 16.9505 8.36995C16.9305 8.56995 16.8205 8.67995 16.6505 8.77995L9.90048 8.79995C9.91048 8.47995 9.94048 8.15995 9.55048 8.12995C9.33048 8.10995 8.45048 8.09995 8.27048 8.15995C8.01048 8.23995 8.05048 8.58995 8.06048 8.80995L1.30048 8.78995C1.17048 8.71995 1.03048 8.59995 1.01048 8.44995C1.07048 7.28995 0.59048 5.14995 2.29048 4.98995C3.27048 4.89995 4.44048 5.09995 5.40048 4.98995C5.46048 4.98995 5.51048 4.98995 5.54048 4.91995V3.99995C5.54048 3.99995 5.63048 3.60995 5.64048 3.55995C5.91048 2.71995 6.72048 2.09995 7.58048 2.03995C8.27048 1.98995 10.1905 1.94995 10.8005 2.08995C11.5805 2.26995 12.4305 3.21995 12.4305 4.02995V4.90995V4.91995ZM10.7905 4.93995V4.07995C10.7905 3.85995 10.4605 3.66995 10.2605 3.63995C9.68048 3.56995 8.47048 3.58995 7.87048 3.63995C7.67048 3.64995 7.45048 3.66995 7.31048 3.83995C7.28048 3.86995 7.18048 4.05995 7.18048 4.08995V4.94995C7.18048 4.94995 7.27048 4.98995 7.28048 4.98995H10.6805C10.6805 4.98995 10.7405 4.92995 10.7805 4.94995L10.7905 4.93995Z" fill="#9DA2AE"/>
</g>
<defs>
<clipPath id="clip0_247_223">
<rect width="16" height="13.9" fill="white" transform="translate(1 2)"/>
</clipPath>
</defs>
</svg>
