<svg width="18" height="18" viewBox="0 0 18 18" fill="none" xmlns="http://www.w3.org/2000/svg">
<path d="M0 4.32911C0 1.93821 1.93821 0 4.32911 0C6.72002 0 8.65823 1.93821 8.65823 4.32911C8.65823 6.72002 6.72002 8.65823 4.32911 8.65823C1.93821 8.65823 0 6.72002 0 4.32911Z" fill="#F8510C"/>
<path d="M0 13.6709C0 11.28 1.93821 9.34177 4.32911 9.34177C6.72002 9.34177 8.65823 11.28 8.65823 13.6709C8.65823 16.0618 6.72002 18 4.32911 18C1.93821 18 0 16.0618 0 13.6709Z" fill="#00A3F4"/>
<path d="M9.34177 4.32911C9.34177 1.93821 11.28 0 13.6709 0C16.0618 0 18 1.93821 18 4.32911C18 6.72002 16.0618 8.65823 13.6709 8.65823C11.28 8.65823 9.34177 6.72002 9.34177 4.32911Z" fill="#7EBA00"/>
<path d="M9.34177 13.6709C9.34177 11.28 11.28 9.34177 13.6709 9.34177C16.0618 9.34177 18 11.28 18 13.6709C18 16.0618 16.0618 18 13.6709 18C11.28 18 9.34177 16.0618 9.34177 13.6709Z" fill="#FFBA00"/>
</svg>
