<svg width="18" height="18" viewBox="0 0 18 18" fill="none" xmlns="http://www.w3.org/2000/svg">
<path d="M14.253 15.3529H7.60156L10.1553 9.14917C10.7046 9.45206 11.2374 9.80028 11.8154 10.0517C12.3934 10.303 13.5657 10.5482 13.9305 11.0221C14.0166 11.1334 14.201 11.5228 14.201 11.6424L14.253 15.3529Z" fill="#9DA2AE"/>
<path d="M0 13.4531C0.114772 12.8576 -0.110673 11.6234 0.338168 11.1948C0.670187 10.8754 1.87119 10.5251 2.36922 10.2964C2.99637 10.0079 3.57843 9.64529 4.17688 9.30737L5.72425 13.3459L6.65145 15.3524H0V13.4531Z" fill="#9DA2AE"/>
<path d="M17.7683 15.3528H12.3525L14.1673 9.98975C14.528 10.134 14.8539 10.3338 15.2126 10.4863C15.7885 10.7315 17.3194 11.1024 17.6043 11.599C17.6576 11.6917 17.7683 12.0811 17.7683 12.1677V15.3528Z" fill="#9DA2AE"/>
<path d="M6.32618 13.4536L6.74428 11.2489C6.10689 11.3148 6.12328 10.8245 6.16837 10.3279C6.18067 10.196 6.18272 10.0724 6.30569 9.99408C6.44096 9.9096 7.58868 9.9096 7.81822 9.93226C8.06621 9.95699 8.17893 10.0827 8.20763 10.3279C8.26296 10.8018 8.24247 11.3272 7.63172 11.2469L7.99653 13.4516H6.32618V13.4536Z" fill="#9DA2AE"/>
<circle cx="7.37922" cy="6.07453" r="3.07453" fill="#9DA2AE"/>
<circle cx="13.2215" cy="6.9969" r="2.15217" fill="#9DA2AE"/>
</svg>
