<svg width="20" height="18" viewBox="0 0 20 18" fill="none" xmlns="http://www.w3.org/2000/svg">
<g clip-path="url(#clip0_916_218)">
<path d="M7.86588 2.94448C7.24036 5.4033 3.80665 5.39665 3.19444 2.94448H0.476094C-0.265879 2.77146 -0.0895357 1.82653 0.652437 1.85314H3.19112C3.57042 0.332599 5.23736 -0.459283 6.64478 0.279363C7.24036 0.592123 7.69619 1.15775 7.84259 1.81655L7.91246 1.84982H19.3482C20.0968 1.82653 20.2565 2.76813 19.5245 2.93782H7.86588V2.94448ZM5.3638 1.08788C3.70018 1.2975 3.89316 3.88941 5.69985 3.70309C7.38676 3.53007 7.10062 0.868284 5.3638 1.08788Z" fill="#9DA2AE"/>
<path d="M11.233 15.5347C10.9036 16.9222 9.42302 17.7307 8.07217 17.2316C7.3435 16.9621 6.75791 16.3266 6.58157 15.5646L6.54164 15.5347L0.619164 15.528C-0.0995186 15.5181 -0.245917 14.5997 0.476093 14.44H6.53831C6.90763 13.1724 8.07217 12.3638 9.40306 12.6334C10.0685 12.7664 10.7473 13.2921 11.0467 13.901C11.1099 14.0275 11.1931 14.4201 11.3129 14.44L19.6077 14.4567C20.2432 14.7029 20.0469 15.5181 19.3781 15.528L11.2297 15.5347H11.233ZM8.69436 13.6814C7.19378 13.8611 7.24036 16.1802 8.79085 16.3C10.6574 16.4464 10.7107 13.4385 8.69436 13.6814Z" fill="#9DA2AE"/>
<path d="M12.3438 9.21988L0.329126 9.18661C-0.110069 8.97034 -0.106741 8.40471 0.329126 8.18844L12.2606 8.15849C12.3903 8.1352 12.4735 7.73926 12.5434 7.59952C13.4085 5.85272 15.9738 5.86603 16.8355 7.61948C16.8854 7.72262 17.0085 8.13187 17.0751 8.15184L19.6737 8.18511C20.1095 8.40138 20.1095 8.96701 19.6737 9.18328L17.0751 9.21655C17.0052 9.23984 16.8721 9.68569 16.8122 9.79549C15.7941 11.7719 12.8362 11.3526 12.3471 9.21322L12.3438 9.21988ZM14.5497 7.36661C12.5367 7.6095 13.3619 10.7438 15.2684 9.87202C16.5793 9.27311 15.9804 7.19359 14.5497 7.36661Z" fill="#9DA2AE"/>
</g>
<defs>
<clipPath id="clip0_916_218">
<rect width="20" height="17.3781" fill="white"/>
</clipPath>
</defs>
</svg>
