<svg width="18" height="18" viewBox="0 0 18 18" fill="none" xmlns="http://www.w3.org/2000/svg">
<g clip-path="url(#clip0_422_908)">
<path d="M12.2552 15.2556V14.8364C12.2552 14.7891 12.2078 14.6433 12.1859 14.5923C12.1058 14.3882 11.9199 14.1768 11.7085 14.1039C11.7851 13.8452 11.7887 13.5973 11.6721 13.3495C11.57 13.1308 10.9687 12.5368 10.7464 12.442C10.5241 12.3473 10.269 12.3436 10.0321 12.4275C9.95189 12.1979 9.70407 11.9901 9.47447 11.9209C9.24486 11.8516 8.44673 11.8516 8.21713 11.9318C7.98752 12.012 7.76521 12.2088 7.68868 12.4275C7.42992 12.3327 7.15659 12.3509 6.91241 12.4785C6.70467 12.5878 6.158 13.1308 6.05596 13.3386C5.93205 13.5864 5.93205 13.8415 6.01223 14.1039C5.80449 14.1804 5.61498 14.3882 5.5348 14.5923C5.51658 14.6433 5.46556 14.7891 5.46556 14.8364V15.2556C4.09159 15.2264 2.41879 15.1244 2.07985 13.4989C1.59149 11.141 3.38092 8.74655 5.6988 8.33837C5.76805 8.32744 6.08512 8.25819 6.12156 8.30922C6.16894 8.92513 6.80672 9.32238 7.33517 9.51553C8.27544 9.85447 9.44895 9.85447 10.3892 9.51553C10.9213 9.32238 11.5518 8.92878 11.6028 8.30922C11.632 8.26548 11.8543 8.30922 11.909 8.31651C13.5708 8.56068 15.0031 9.82531 15.4988 11.4179C15.7575 12.2416 15.845 13.4443 15.3639 14.2023C14.7444 15.1863 13.2939 15.2337 12.2552 15.2556Z" fill="#9DA2AE"/>
<path d="M8.67982 0.00384729C10.4765 -0.0981977 11.989 1.28305 12.2696 3.01782C12.5867 4.99676 11.4132 8.51002 9.04791 8.65944C6.43484 8.82709 5.11918 5.14983 5.45083 3.0324C5.7023 1.42154 7.02159 0.0986033 8.67982 0.00384729Z" fill="#9DA2AE"/>
<path d="M9.50804 13.1859L9.88342 13.328C10.1385 13.2041 10.2807 12.9089 10.5759 13.1421C10.6706 13.2187 10.9294 13.4738 11.0059 13.5722C11.2282 13.8637 10.9039 14.0205 10.7945 14.2719L10.9476 14.6254C11.159 14.6837 11.538 14.6254 11.5745 14.917C11.589 15.0518 11.5927 15.5256 11.5708 15.6532C11.5271 15.9046 11.1845 15.8536 11.0059 15.9083C10.8966 15.9411 10.8711 16.1889 10.8018 16.2837C10.9039 16.5096 11.2246 16.6918 11.0205 16.9579C10.9512 17.049 10.6305 17.3697 10.5394 17.4353C10.4738 17.4827 10.4082 17.5118 10.3244 17.4973C10.1896 17.4718 9.93445 17.2021 9.85062 17.2166C9.7668 17.2312 9.61738 17.3588 9.50804 17.3515C9.45702 17.5702 9.50075 17.9565 9.20191 17.9929C9.078 18.0075 8.59693 18.0111 8.48395 17.9893C8.22519 17.9382 8.26164 17.5519 8.21426 17.3515L7.84252 17.2166C7.63479 17.3187 7.44163 17.6212 7.19381 17.4462C7.12821 17.3989 6.73096 17.0053 6.68723 16.936C6.51229 16.6736 6.84394 16.4987 6.92047 16.2727L6.76376 15.9229C6.54509 15.8427 6.18429 15.9229 6.15149 15.6204C6.13692 15.4892 6.13327 15.0008 6.15514 14.8842C6.20616 14.6327 6.59976 14.6874 6.78563 14.6181L6.92776 14.261C6.78927 14.0022 6.49043 13.8564 6.73461 13.554C6.80021 13.4738 7.17559 13.0984 7.24848 13.0729C7.31043 13.051 7.37603 13.051 7.43799 13.0656C7.55826 13.0984 7.70403 13.2733 7.80972 13.3207C7.88626 13.3535 8.1195 13.2077 8.21426 13.1895C8.27986 12.9854 8.21426 12.5955 8.49853 12.57C8.66982 12.5554 9.07071 12.5517 9.242 12.57C9.49711 12.5991 9.44973 13.0073 9.50804 13.1895V13.1859ZM8.73906 14.1881C7.35052 14.3448 7.51817 16.4805 8.98688 16.3493C10.3754 16.2217 10.1786 14.0277 8.73906 14.1881Z" fill="#9DA2AE"/>
<path d="M8.73837 14.1879C10.1779 14.0239 10.3747 16.2215 8.98619 16.3491C7.51747 16.4839 7.34983 14.3446 8.73837 14.1879Z" fill="white"/>
</g>
<defs>
<clipPath id="clip0_422_908">
<rect width="13.7105" height="18" fill="white" transform="translate(2)"/>
</clipPath>
</defs>
</svg>
